<svg id="Layer_1" data-name="Layer 1" xmlns="http://www.w3.org/2000/svg" viewBox="0 0 503.44 113.9"><defs><style>.cls-1{fill:#007ab1;}.cls-2{fill:#fff;}.cls-3{fill:#35393a;}</style></defs><title>itDAGENE(svart)</title><rect class="cls-1" width="113.9" height="113.9"/><path class="cls-2" d="M66.24,426H56.37c-1.89,0-1.89-.25-1.89-1.9V365.92c0-1.75.42-1.84,1.84-1.85L66.1,364c1.62,0,1.89.26,1.89,1.91v58.3c0,1.52-.13,1.77-1.75,1.77m-5.11-72.83c-5.16,0-9.39-3.86-9.39-8.83s4.23-8.84,9.39-8.84,9.39,4,9.39,8.84-4.1,8.83-9.39,8.83" transform="translate(-28.95 -325.58)"/><path class="cls-2" d="M123.24,424.05a39.19,39.19,0,0,1-15.53,3.31C94.13,427.36,91,419.6,91,408.17V373.61H82.1c-1.69,0-2.07-.38-2.07-1.91v-6.1c0-1.52.38-1.9,2.07-1.9H91V347.05c0-1.27.39-1.65,1.69-1.9l8.8-1.65c1.68-.26,2.58-.64,2.58,1.52V363.7h17.08c1.94,0,1.81.89,1.43,2.29l-1.43,6c-.26,1.27-.65,1.65-1.94,1.65H104.09V406.9c0,7.5,1.17,9.28,6.34,9.28,3.76,0,6.47-1.15,9.84-2.55,1.81-.76,1.94,0,2.33,1.27l1.81,6.49c.38,1.52.52,1.9-1.17,2.66" transform="translate(-28.95 -325.58)"/><path class="cls-3" d="M209.49,414.67c-5,6.76-12.33,11.26-20,11.85-3.08.24-7,.48-11.85.48h-20V344.61h16.59c4.75,0,11,.24,14.35.48a27.92,27.92,0,0,1,18,8.18c7.59,7.46,11.26,18,11.26,32.83,0,11.26-2.72,21.1-8.29,28.57M195,364.53c-2.73-4.51-6.52-6.88-13-6.88H174.4v55.83h8.89c10.91,0,15.88-8.41,15.88-25.84,0-9.6-.83-17.66-4.14-23.11" transform="translate(-28.95 -325.58)"/><path class="cls-3" d="M268.59,427l-5.81-19.56H238.6L232.79,427H215.48l27-82.62h17.9l26,82.62H268.59m-14.34-49.91c-.83-3.79-3.33-14.58-3.33-14.58s-2.36,9.72-3.91,15.89c-1.54,5.92-2.6,9.83-4.38,15.29h16.12s-2.73-8.65-4.5-16.6" transform="translate(-28.95 -325.58)"/><path class="cls-3" d="M321.19,427.94c-12.33,0-21.45-4-28.09-12.56-6-7.71-8.77-16.48-8.77-28.8,0-17.43,5.69-29.76,17.19-37.46,6-4,12.2-5.81,20-5.81a39.13,39.13,0,0,1,26.19,9.48L339,363.1a26.08,26.08,0,0,0-17.19-6.4c-4.86,0-9,1.43-11.85,4.15-5.57,5.34-7,14.23-7,26.55,0,11.74,2,19.33,6.16,23.47,3.08,3,7.59,4.63,12.92,4.63a19.42,19.42,0,0,0,9.37-2V394.75H318.82l-2.13-13.51h31.88v39.35a53,53,0,0,1-27.38,7.35" transform="translate(-28.95 -325.58)"/><polygon class="cls-3" points="331.19 101.41 331.19 19.03 378.13 19.03 376 32.54 347.79 32.54 347.79 51.63 371.37 51.63 371.37 65.14 348.02 65.14 348.02 87.19 379.2 87.19 379.2 101.41 331.19 101.41"/><polygon class="cls-3" points="455.44 101.41 455.44 19.03 502.38 19.03 500.24 32.54 472.03 32.54 472.03 51.63 495.62 51.63 495.62 65.14 472.27 65.14 472.27 87.19 503.44 87.19 503.44 101.41 455.44 101.41"/><path class="cls-3" d="M455.57,427l-14.1-31.53c-4.63-10.32-9.6-21.93-11.14-27,.59,6.76.71,16.48.82,23.35l.48,35.21h-16V344.61H434l15.77,33a158.76,158.76,0,0,1,9,23.35c-.59-6.4-1.18-16.95-1.3-22.64l-.35-33.67h15.76V427H455.57" transform="translate(-28.95 -325.58)"/></svg>